<svg width="52" height="52" viewBox="0 0 52 52" fill="none" xmlns="http://www.w3.org/2000/svg">
<rect width="52" height="52" fill="#1E1E1E"/>
<g id="Home Tab" clip-path="url(#clip0_0_1)">
<rect width="375" height="1435" transform="translate(-16 -49)" fill="white"/>
<g id="Task">
<rect id="Rectangle 2" x="0.5" y="0.5" width="51" height="51" rx="25.5" fill="#ffff" stroke="#ffff"/>
<g id="Group">
<path id="Vector" d="M30.8576 19.1285L25.4767 16.2289C24.9052 15.9237 24.2291 15.9237 23.6576 16.2289L18.2862 19.1285C17.8957 19.3478 17.6481 19.7675 17.6481 20.2253C17.6481 20.6927 17.8862 21.1124 18.2862 21.3222L23.6671 24.2217C23.9529 24.3743 24.2671 24.4507 24.5719 24.4507C24.8767 24.4507 25.2005 24.3743 25.4767 24.2217L30.8576 21.3222C31.2481 21.1124 31.4957 20.6927 31.4957 20.2253C31.4957 19.7675 31.2481 19.3478 30.8576 19.1285Z" fill="#A7A7A7"/>
<path id="Vector_2" d="M22.7809 25.2322L17.781 22.7332C17.3905 22.5329 16.9524 22.5615 16.581 22.7809C16.219 23.0098 16 23.4008 16 23.8301V28.5609C16 29.3812 16.4571 30.1156 17.1905 30.4876L22.1905 32.9866C22.3619 33.0724 22.5524 33.1201 22.7429 33.1201C22.9619 33.1201 23.1905 33.0533 23.3905 32.9389C23.7524 32.71 23.9714 32.3189 23.9714 31.8897V27.1588C23.9619 26.3386 23.5048 25.6041 22.7809 25.2322Z" fill="#A7A7A7"/>
<path id="Vector_3" d="M33.1434 23.8301V26.1764C32.6863 26.0429 32.2006 25.9857 31.7148 25.9857C30.4196 25.9857 29.1529 26.434 28.1529 27.2351C26.7815 28.3129 26.0006 29.9439 26.0006 31.7085C26.0006 32.1758 26.0577 32.6432 26.1815 33.0915C26.0387 33.0724 25.8958 33.0152 25.7625 32.9293C25.4006 32.71 25.1815 32.3189 25.1815 31.8897V27.1588C25.1815 26.3386 25.6387 25.6041 26.3625 25.2322L31.3625 22.7332C31.7529 22.5329 32.191 22.5615 32.5625 22.7809C32.9244 23.0098 33.1434 23.4008 33.1434 23.8301Z" fill="#A7A7A7"/>
<path id="Vector_4" d="M35.0286 28.9895C34.2476 28.0262 33.0572 27.4158 31.7143 27.4158C30.7048 27.4158 29.7714 27.7687 29.0381 28.36C28.0476 29.1422 27.4286 30.3535 27.4286 31.7079C27.4286 33.0527 28.0381 34.245 29 35.0271C29.7333 35.6375 30.6857 36 31.7143 36C32.8 36 33.781 35.5898 34.5429 34.9317C35.4286 34.1401 36 32.9955 36 31.7079C36 30.6778 35.6381 29.724 35.0286 28.9895ZM32.6953 31.9749C32.6953 32.2229 32.5619 32.4614 32.3524 32.5854L31.0095 33.3866C30.8953 33.4533 30.7714 33.4915 30.6381 33.4915C30.4 33.4915 30.1619 33.3675 30.0286 33.1481C29.8286 32.8047 29.9333 32.366 30.2762 32.1657L31.2667 31.5743V30.3726C31.2667 29.9815 31.5905 29.6572 31.981 29.6572C32.3714 29.6572 32.6953 29.9815 32.6953 30.3726V31.9749Z" fill="#A7A7A7"/>
</g>
</g>
</g>
<defs>
<clipPath id="clip0_0_1">
<rect width="375" height="1435" fill="white" transform="translate(-16 -49)"/>
</clipPath>
</defs>
</svg>
