<svg width="12" height="17" viewBox="0 0 12 17" fill="none" xmlns="http://www.w3.org/2000/svg">
<path id="Vector" d="M11.0177 8.35631L10.0308 7.36941C9.79622 7.16717 9.6587 6.86787 9.65061 6.5362C9.63443 6.17218 9.78004 5.80816 10.047 5.54121L11.0177 4.57049C11.859 3.72919 12.1745 2.92026 11.9075 2.2812C11.6487 1.65023 10.8478 1.30239 9.66679 1.30239H1.2134V0.606702C1.2134 0.275038 0.938366 0 0.606702 0C0.275038 0 0 0.275038 0 0.606702V15.572C0 15.9037 0.275038 16.1787 0.606702 16.1787C0.938366 16.1787 1.2134 15.9037 1.2134 15.572V11.6244H9.66679C10.8317 11.6244 11.6163 11.2685 11.8833 10.6294C12.1502 9.99036 11.8428 9.18951 11.0177 8.35631Z" fill="#FF6348"/>
</svg>
